<?xml version="1.0" encoding="utf-8"?>
<!-- Generator: Adobe Illustrator 24.2.1, SVG Export Plug-In . SVG Version: 6.00 Build 0)  -->
<svg version="1.1" id="Layer_1" xmlns="http://www.w3.org/2000/svg" xmlns:xlink="http://www.w3.org/1999/xlink" x="0px" y="0px"
	 viewBox="0 0 446.37 274.26" style="enable-background:new 0 0 446.37 274.26;" xml:space="preserve">
<g>
	<path d="M207.22,115.27h10.73v37.03h24.33v9.26h-35.06V115.27z"/>
	<path d="M266.55,126.74h11.01l-14.36,36.31c-2.86,7.21-5.92,9.92-12.27,9.92c-3.83,0-6.69-0.93-9.41-2.45l3.55-7.27
		c1.39,0.79,3.14,1.39,4.53,1.39c1.81,0,2.79-0.53,3.69-2.31l-14.64-35.58h11.22l8.5,24.14L266.55,126.74z"/>
	<path d="M279.62,126.74h10.59v5.03c2.44-2.98,5.58-5.69,10.94-5.69c8.02,0,12.69,5.03,12.69,13.16v22.95h-10.6v-19.77
		c0-4.76-2.37-7.21-6.41-7.21c-4.04,0-6.62,2.45-6.62,7.21v19.77h-10.59V126.74z"/>
	<path d="M334.39,137.12l7.04-10.38h11.08l-12.62,17.33l13.17,18.12h-11.36l-7.53-11.04l-7.53,11.04h-11.08l13.1-17.99l-12.62-17.46
		h11.36L334.39,137.12z"/>
</g>
<path d="M181.1,153.86l-17.42-16.72l17.36-16.66l0.06-0.05c6.62-6.62,6.62-17.39,0-24.01c-3.21-3.21-7.47-4.97-12.01-4.97
	c-4.46,0-8.67,1.71-11.86,4.83l-13.43,12.6l12.79,12.01c1.65,1.65,3.04,3.53,4.13,5.6c4.7,8.94,3.05,19.76-4.1,26.91l-0.31,0.3
	l-12.5,11.73l13.43,12.6c3.19,3.11,7.4,4.83,11.86,4.83c4.53,0,8.8-1.77,12.01-4.97C187.71,171.25,187.71,160.48,181.1,153.86z"/>
<path d="M109.74,182.84c-4.54,0-8.8-1.77-12.01-4.97c-6.62-6.62-6.62-17.39,0-24.01l0.06-0.05l17.36-16.66l-17.42-16.72
	c-6.62-6.62-6.62-17.39,0-24.01c3.21-3.21,7.47-4.97,12.01-4.97c4.46,0,8.67,1.71,11.86,4.83l30.76,28.87
	c1.22,1.21,2.24,2.61,3.05,4.14c3.47,6.61,2.25,14.6-3.03,19.89l-0.24,0.24l-30.52,28.64C118.41,181.13,114.2,182.84,109.74,182.84z
	"/>
</svg>
