<svg version="1.2" xmlns="http://www.w3.org/2000/svg" viewBox="0 0 447 145" width="447" height="145"><style></style><path  d="m207.2 50.3h10.8l-0.1 37h24.4v9.3h-35.1z"/><path  d="m266.6 61.7h11l-14.4 36.4c-2.9 7.2-5.9 9.9-12.3 9.9-3.8 0-6.7-1-9.4-2.5l3.6-7.3c1.4 0.8 3.1 1.4 4.5 1.4 1.8 0 2.8-0.5 3.7-2.3l-14.7-35.6h11.3l8.5 24.2z"/><path  d="m279.6 61.7h10.6v5.1c2.4-3 5.6-5.7 10.9-5.7 8.1 0 12.7 5 12.7 13.1v23h-10.6v-19.8c0-4.7-2.3-7.2-6.4-7.2-4 0-6.6 2.5-6.6 7.2v19.8h-10.6z"/><path  d="m334.4 72.1l7-10.4h11.1l-12.6 17.4 13.2 18.1h-11.4l-7.5-11-7.6 11h-11l13.1-18-12.7-17.5h11.4z"/><path  d="m181.1 88.9l-17.4-16.8 17.3-16.6 0.1-0.1c6.6-6.6 6.6-17.4 0-24-3.2-3.2-7.5-4.9-12-4.9-4.5 0-8.7 1.7-11.9 4.8l-13.4 12.6 12.8 12q2.5 2.5 4.1 5.6c4.7 8.9 3.1 19.7-4.1 26.9l-0.3 0.3-12.5 11.7 13.4 12.6c3.2 3.1 7.4 4.9 11.9 4.9 4.5 0 8.8-1.8 12-5 6.6-6.7 6.6-17.4 0-24z"/><path  d="m109.7 117.8c-4.5 0-8.8-1.7-12-4.9-6.6-6.6-6.6-17.4 0-24l0.1-0.1 17.3-16.6-17.4-16.8c-6.6-6.6-6.6-17.4 0-24 3.2-3.2 7.5-4.9 12-4.9 4.5 0 8.7 1.7 11.9 4.8l30.8 28.9q1.8 1.8 3 4.1c3.5 6.6 2.3 14.6-3 19.9l-0.3 0.2-30.5 28.7c-3.2 3-7.4 4.7-11.9 4.7z"/></svg>